<mxfile host="app.diagrams.net" agent="Mozilla/5.0 (Windows NT 10.0; Win64; x64; rv:142.0) Gecko/20100101 Firefox/142.0" version="28.1.2">
  <diagram id="C5RBs43oDa-KdzZeNtuy" name="Snake">
    <mxGraphModel dx="3209" dy="2805" grid="1" gridSize="10" guides="1" tooltips="1" connect="1" arrows="1" fold="1" page="0" pageScale="1" pageWidth="827" pageHeight="1169" math="0" shadow="0">
      <root>
        <mxCell id="WIyWlLk6GJQsqaUBKTNV-0" />
        <mxCell id="WIyWlLk6GJQsqaUBKTNV-1" parent="WIyWlLk6GJQsqaUBKTNV-0" />
        <mxCell id="eW0T1VOaYJWBQ0yNCG2t-7" value="" style="edgeStyle=none;curved=1;rounded=0;orthogonalLoop=1;jettySize=auto;html=1;fontSize=12;startSize=8;endSize=8;" edge="1" parent="WIyWlLk6GJQsqaUBKTNV-1" source="EPb7erDvm0e9K2WXAWxK-30" target="eW0T1VOaYJWBQ0yNCG2t-3">
          <mxGeometry relative="1" as="geometry" />
        </mxCell>
        <mxCell id="EPb7erDvm0e9K2WXAWxK-30" value="EchoPlay" style="swimlane;fontStyle=2;align=center;verticalAlign=top;childLayout=stackLayout;horizontal=1;startSize=26;horizontalStack=0;resizeParent=1;resizeLast=0;collapsible=1;marginBottom=0;rounded=0;shadow=0;strokeWidth=1;" parent="WIyWlLk6GJQsqaUBKTNV-1" vertex="1">
          <mxGeometry x="-1070" y="-1410" width="730" height="300" as="geometry">
            <mxRectangle x="230" y="140" width="160" height="26" as="alternateBounds" />
          </mxGeometry>
        </mxCell>
        <mxCell id="EPb7erDvm0e9K2WXAWxK-31" value="+ currentGame : char&#xa;mainScreen : Screen&#xa;yellowButton : EchoButton&#xa;redButton : EchoButton&#xa;leftButton : Qwiicbutton&#xa;rightButton : Qwiicbutton&#xa;" style="text;align=left;verticalAlign=top;spacingLeft=4;spacingRight=4;overflow=hidden;rotatable=0;points=[[0,0.5],[1,0.5]];portConstraint=eastwest;rounded=0;shadow=0;html=0;" parent="EPb7erDvm0e9K2WXAWxK-30" vertex="1">
          <mxGeometry y="26" width="730" height="114" as="geometry" />
        </mxCell>
        <mxCell id="EPb7erDvm0e9K2WXAWxK-32" value="" style="line;html=1;strokeWidth=1;align=left;verticalAlign=middle;spacingTop=-1;spacingLeft=3;spacingRight=3;rotatable=0;labelPosition=right;points=[];portConstraint=eastwest;" parent="EPb7erDvm0e9K2WXAWxK-30" vertex="1">
          <mxGeometry y="140" width="730" height="8" as="geometry" />
        </mxCell>
        <mxCell id="EPb7erDvm0e9K2WXAWxK-33" value="+ tPoint : struct {posX, posY}&#xa;+ StartGame(gameNumber : char) : void&#xa;+ EndGame() : void&#xa;+ NextGame()&#xa;+ PreparePins()&#xa;+ WaitForButtonPress(leftButton : QwiicButton, rightButton : Qwiicbutton) : int&#xa;+ LEDOnPress(leftButton : Qwiicbutton, rightButton : Qwiicbutton) : void&#xa;&#xa;" style="text;align=left;verticalAlign=top;spacingLeft=4;spacingRight=4;overflow=hidden;rotatable=0;points=[[0,0.5],[1,0.5]];portConstraint=eastwest;" parent="EPb7erDvm0e9K2WXAWxK-30" vertex="1">
          <mxGeometry y="148" width="730" height="152" as="geometry" />
        </mxCell>
        <mxCell id="EPb7erDvm0e9K2WXAWxK-44" value="" style="edgeStyle=none;curved=1;rounded=0;orthogonalLoop=1;jettySize=auto;html=1;fontSize=12;startSize=8;endSize=8;exitX=0.5;exitY=0;exitDx=0;exitDy=0;entryX=0.157;entryY=1;entryDx=0;entryDy=0;entryPerimeter=0;" parent="WIyWlLk6GJQsqaUBKTNV-1" source="EPb7erDvm0e9K2WXAWxK-41" target="EPb7erDvm0e9K2WXAWxK-33" edge="1">
          <mxGeometry relative="1" as="geometry">
            <mxPoint x="-350.00000000000045" y="-1234.883181818182" as="sourcePoint" />
            <mxPoint x="-510" y="-1100" as="targetPoint" />
          </mxGeometry>
        </mxCell>
        <mxCell id="EPb7erDvm0e9K2WXAWxK-41" value="Pin" style="swimlane;fontStyle=2;align=center;verticalAlign=top;childLayout=stackLayout;horizontal=1;startSize=26;horizontalStack=0;resizeParent=1;resizeLast=0;collapsible=1;marginBottom=0;rounded=0;shadow=0;strokeWidth=1;" parent="WIyWlLk6GJQsqaUBKTNV-1" vertex="1">
          <mxGeometry x="-1040" y="-1020" width="170" height="110" as="geometry">
            <mxRectangle x="230" y="140" width="160" height="26" as="alternateBounds" />
          </mxGeometry>
        </mxCell>
        <mxCell id="EPb7erDvm0e9K2WXAWxK-42" value="pinNumber : char {readOnly}" style="text;align=left;verticalAlign=top;spacingLeft=4;spacingRight=4;overflow=hidden;rotatable=0;points=[[0,0.5],[1,0.5]];portConstraint=eastwest;rounded=0;shadow=0;html=0;" parent="EPb7erDvm0e9K2WXAWxK-41" vertex="1">
          <mxGeometry y="26" width="170" height="34" as="geometry" />
        </mxCell>
        <mxCell id="EPb7erDvm0e9K2WXAWxK-43" value="" style="line;html=1;strokeWidth=1;align=left;verticalAlign=middle;spacingTop=-1;spacingLeft=3;spacingRight=3;rotatable=0;labelPosition=right;points=[];portConstraint=eastwest;" parent="EPb7erDvm0e9K2WXAWxK-41" vertex="1">
          <mxGeometry y="60" width="170" height="8" as="geometry" />
        </mxCell>
        <mxCell id="EPb7erDvm0e9K2WXAWxK-46" value="- PreparePin() : void" style="text;align=left;verticalAlign=top;spacingLeft=4;spacingRight=4;overflow=hidden;rotatable=0;points=[[0,0.5],[1,0.5]];portConstraint=eastwest;rounded=0;shadow=0;html=0;" parent="EPb7erDvm0e9K2WXAWxK-41" vertex="1">
          <mxGeometry y="68" width="170" height="42" as="geometry" />
        </mxCell>
        <mxCell id="EPb7erDvm0e9K2WXAWxK-55" value="Game" style="swimlane;fontStyle=2;align=center;verticalAlign=top;childLayout=stackLayout;horizontal=1;startSize=26;horizontalStack=0;resizeParent=1;resizeLast=0;collapsible=1;marginBottom=0;rounded=0;shadow=0;strokeWidth=1;" parent="WIyWlLk6GJQsqaUBKTNV-1" vertex="1">
          <mxGeometry x="-10" y="-1010" width="730" height="210" as="geometry">
            <mxRectangle x="230" y="140" width="160" height="26" as="alternateBounds" />
          </mxGeometry>
        </mxCell>
        <mxCell id="EPb7erDvm0e9K2WXAWxK-56" value="- gameNumber : char&#xa;" style="text;align=left;verticalAlign=top;spacingLeft=4;spacingRight=4;overflow=hidden;rotatable=0;points=[[0,0.5],[1,0.5]];portConstraint=eastwest;rounded=0;shadow=0;html=0;" parent="EPb7erDvm0e9K2WXAWxK-55" vertex="1">
          <mxGeometry y="26" width="730" height="84" as="geometry" />
        </mxCell>
        <mxCell id="EPb7erDvm0e9K2WXAWxK-57" value="" style="line;html=1;strokeWidth=1;align=left;verticalAlign=middle;spacingTop=-1;spacingLeft=3;spacingRight=3;rotatable=0;labelPosition=right;points=[];portConstraint=eastwest;" parent="EPb7erDvm0e9K2WXAWxK-55" vertex="1">
          <mxGeometry y="110" width="730" height="8" as="geometry" />
        </mxCell>
        <mxCell id="EWlRzlxdhO2FhHiECtLa-30" value="start() : virtual&#xa;end() : virtual&#xa;&#xa;" style="text;align=left;verticalAlign=top;spacingLeft=4;spacingRight=4;overflow=hidden;rotatable=0;points=[[0,0.5],[1,0.5]];portConstraint=eastwest;rounded=0;shadow=0;html=0;" parent="EPb7erDvm0e9K2WXAWxK-55" vertex="1">
          <mxGeometry y="118" width="730" height="84" as="geometry" />
        </mxCell>
        <mxCell id="EWlRzlxdhO2FhHiECtLa-0" value="Screen" style="swimlane;fontStyle=2;align=center;verticalAlign=top;childLayout=stackLayout;horizontal=1;startSize=26;horizontalStack=0;resizeParent=1;resizeLast=0;collapsible=1;marginBottom=0;rounded=0;shadow=0;strokeWidth=1;" parent="WIyWlLk6GJQsqaUBKTNV-1" vertex="1">
          <mxGeometry x="-1130" y="-1770" width="410" height="170" as="geometry">
            <mxRectangle x="230" y="140" width="160" height="26" as="alternateBounds" />
          </mxGeometry>
        </mxCell>
        <mxCell id="EWlRzlxdhO2FhHiECtLa-1" value="image : uint8_t[16][16]&#xa;buffer : uint8_t[256]&#xa;TranslationTable : uint8_t[16][16] {readOnly}" style="text;align=left;verticalAlign=top;spacingLeft=4;spacingRight=4;overflow=hidden;rotatable=0;points=[[0,0.5],[1,0.5]];portConstraint=eastwest;rounded=0;shadow=0;html=0;" parent="EWlRzlxdhO2FhHiECtLa-0" vertex="1">
          <mxGeometry y="26" width="410" height="64" as="geometry" />
        </mxCell>
        <mxCell id="EWlRzlxdhO2FhHiECtLa-2" value="" style="line;html=1;strokeWidth=1;align=left;verticalAlign=middle;spacingTop=-1;spacingLeft=3;spacingRight=3;rotatable=0;labelPosition=right;points=[];portConstraint=eastwest;" parent="EWlRzlxdhO2FhHiECtLa-0" vertex="1">
          <mxGeometry y="90" width="410" height="8" as="geometry" />
        </mxCell>
        <mxCell id="EWlRzlxdhO2FhHiECtLa-3" value="+ DrawImage(image : uint8_t[16][16], newImage : uint8_t[16][16]) : void&#xa;+ EmptyScreen(image : uint8_t[16][16]) : void&#xa;+ UpdateScreen(buffer : uint8_t[256], image : uint8_t[16][16]) : void&#xa;+ ImagePrint(image : uint8_t[16][16]) : void" style="text;align=left;verticalAlign=top;spacingLeft=4;spacingRight=4;overflow=hidden;rotatable=0;points=[[0,0.5],[1,0.5]];portConstraint=eastwest;" parent="EWlRzlxdhO2FhHiECtLa-0" vertex="1">
          <mxGeometry y="98" width="410" height="72" as="geometry" />
        </mxCell>
        <mxCell id="EWlRzlxdhO2FhHiECtLa-10" value="EchoButton" style="swimlane;fontStyle=2;align=center;verticalAlign=top;childLayout=stackLayout;horizontal=1;startSize=26;horizontalStack=0;resizeParent=1;resizeLast=0;collapsible=1;marginBottom=0;rounded=0;shadow=0;strokeWidth=1;" parent="WIyWlLk6GJQsqaUBKTNV-1" vertex="1">
          <mxGeometry x="-1610" y="-1420" width="430" height="130" as="geometry">
            <mxRectangle x="230" y="140" width="160" height="26" as="alternateBounds" />
          </mxGeometry>
        </mxCell>
        <mxCell id="EWlRzlxdhO2FhHiECtLa-11" value="pinNum : Pin&#xa;" style="text;align=left;verticalAlign=top;spacingLeft=4;spacingRight=4;overflow=hidden;rotatable=0;points=[[0,0.5],[1,0.5]];portConstraint=eastwest;rounded=0;shadow=0;html=0;" parent="EWlRzlxdhO2FhHiECtLa-10" vertex="1">
          <mxGeometry y="26" width="430" height="34" as="geometry" />
        </mxCell>
        <mxCell id="EWlRzlxdhO2FhHiECtLa-12" value="" style="line;html=1;strokeWidth=1;align=left;verticalAlign=middle;spacingTop=-1;spacingLeft=3;spacingRight=3;rotatable=0;labelPosition=right;points=[];portConstraint=eastwest;" parent="EWlRzlxdhO2FhHiECtLa-10" vertex="1">
          <mxGeometry y="60" width="430" height="8" as="geometry" />
        </mxCell>
        <mxCell id="EWlRzlxdhO2FhHiECtLa-34" value="isPressed() : bool&#xa;" style="text;align=left;verticalAlign=top;spacingLeft=4;spacingRight=4;overflow=hidden;rotatable=0;points=[[0,0.5],[1,0.5]];portConstraint=eastwest;rounded=0;shadow=0;html=0;" parent="EWlRzlxdhO2FhHiECtLa-10" vertex="1">
          <mxGeometry y="68" width="430" height="62" as="geometry" />
        </mxCell>
        <mxCell id="EWlRzlxdhO2FhHiECtLa-14" style="edgeStyle=none;curved=1;rounded=0;orthogonalLoop=1;jettySize=auto;html=1;exitX=0.999;exitY=0.269;exitDx=0;exitDy=0;entryX=0;entryY=0.322;entryDx=0;entryDy=0;entryPerimeter=0;fontSize=12;startSize=8;endSize=8;exitPerimeter=0;" parent="WIyWlLk6GJQsqaUBKTNV-1" source="EWlRzlxdhO2FhHiECtLa-34" target="EPb7erDvm0e9K2WXAWxK-31" edge="1">
          <mxGeometry relative="1" as="geometry">
            <mxPoint x="-1240" y="-1311" as="sourcePoint" />
          </mxGeometry>
        </mxCell>
        <mxCell id="EWlRzlxdhO2FhHiECtLa-15" value="Qwiicbutton" style="swimlane;fontStyle=2;align=center;verticalAlign=top;childLayout=stackLayout;horizontal=1;startSize=26;horizontalStack=0;resizeParent=1;resizeLast=0;collapsible=1;marginBottom=0;rounded=0;shadow=0;strokeWidth=1;" parent="WIyWlLk6GJQsqaUBKTNV-1" vertex="1">
          <mxGeometry x="-1610" y="-1260" width="390" height="220" as="geometry">
            <mxRectangle x="230" y="140" width="160" height="26" as="alternateBounds" />
          </mxGeometry>
        </mxCell>
        <mxCell id="EWlRzlxdhO2FhHiECtLa-16" value="- _deviceAddress : uint8_t&#xa;- wirePort : TwoWire" style="text;align=left;verticalAlign=top;spacingLeft=4;spacingRight=4;overflow=hidden;rotatable=0;points=[[0,0.5],[1,0.5]];portConstraint=eastwest;rounded=0;shadow=0;html=0;" parent="EWlRzlxdhO2FhHiECtLa-15" vertex="1">
          <mxGeometry y="26" width="390" height="44" as="geometry" />
        </mxCell>
        <mxCell id="EWlRzlxdhO2FhHiECtLa-17" value="" style="line;html=1;strokeWidth=1;align=left;verticalAlign=middle;spacingTop=-1;spacingLeft=3;spacingRight=3;rotatable=0;labelPosition=right;points=[];portConstraint=eastwest;" parent="EWlRzlxdhO2FhHiECtLa-15" vertex="1">
          <mxGeometry y="70" width="390" height="8" as="geometry" />
        </mxCell>
        <mxCell id="EWlRzlxdhO2FhHiECtLa-18" value="+ begin(adress : uint8_t = 0x6F, wirePort : &amp;TwoWire = Wire) : bool&#xa;+ isPressed() : bool&#xa;+ hasBeenClicked() : bool&#xa;+ clearEventBits() : uint8_t&#xa;+ isPressedQueueFull() : bool&#xa;+ isPressedQueueEmpty() : bool&#xa;+ popPressedQueue() : unsigned long&#xa;+ LEDon(brightness : uint8_t = 255) : bool&#xa;+ LEDoff() : bool&#xa;" style="text;align=left;verticalAlign=top;spacingLeft=4;spacingRight=4;overflow=hidden;rotatable=0;points=[[0,0.5],[1,0.5]];portConstraint=eastwest;" parent="EWlRzlxdhO2FhHiECtLa-15" vertex="1">
          <mxGeometry y="78" width="390" height="142" as="geometry" />
        </mxCell>
        <mxCell id="EWlRzlxdhO2FhHiECtLa-19" style="edgeStyle=none;curved=1;rounded=0;orthogonalLoop=1;jettySize=auto;html=1;exitX=1;exitY=0.5;exitDx=0;exitDy=0;entryX=0;entryY=0.5;entryDx=0;entryDy=0;fontSize=12;startSize=8;endSize=8;" parent="WIyWlLk6GJQsqaUBKTNV-1" source="EWlRzlxdhO2FhHiECtLa-18" target="EPb7erDvm0e9K2WXAWxK-33" edge="1">
          <mxGeometry relative="1" as="geometry" />
        </mxCell>
        <mxCell id="EWlRzlxdhO2FhHiECtLa-21" style="edgeStyle=none;curved=1;rounded=0;orthogonalLoop=1;jettySize=auto;html=1;exitX=0.471;exitY=1.017;exitDx=0;exitDy=0;entryX=0.25;entryY=0;entryDx=0;entryDy=0;fontSize=12;startSize=8;endSize=8;exitPerimeter=0;" parent="WIyWlLk6GJQsqaUBKTNV-1" source="EWlRzlxdhO2FhHiECtLa-3" target="EPb7erDvm0e9K2WXAWxK-30" edge="1">
          <mxGeometry relative="1" as="geometry" />
        </mxCell>
        <mxCell id="EWlRzlxdhO2FhHiECtLa-22" value="SimpleSoftTimer" style="swimlane;fontStyle=2;align=center;verticalAlign=top;childLayout=stackLayout;horizontal=1;startSize=26;horizontalStack=0;resizeParent=1;resizeLast=0;collapsible=1;marginBottom=0;rounded=0;shadow=0;strokeWidth=1;" parent="WIyWlLk6GJQsqaUBKTNV-1" vertex="1">
          <mxGeometry x="-620" y="-1740" width="270" height="140" as="geometry">
            <mxRectangle x="230" y="140" width="160" height="26" as="alternateBounds" />
          </mxGeometry>
        </mxCell>
        <mxCell id="EWlRzlxdhO2FhHiECtLa-23" value="- m_timeout : tSimpleSoftTimerTime&#xa;- m_time_start : tSimpleSoftTimerTime" style="text;align=left;verticalAlign=top;spacingLeft=4;spacingRight=4;overflow=hidden;rotatable=0;points=[[0,0.5],[1,0.5]];portConstraint=eastwest;rounded=0;shadow=0;html=0;" parent="EWlRzlxdhO2FhHiECtLa-22" vertex="1">
          <mxGeometry y="26" width="270" height="44" as="geometry" />
        </mxCell>
        <mxCell id="EWlRzlxdhO2FhHiECtLa-24" value="" style="line;html=1;strokeWidth=1;align=left;verticalAlign=middle;spacingTop=-1;spacingLeft=3;spacingRight=3;rotatable=0;labelPosition=right;points=[];portConstraint=eastwest;" parent="EWlRzlxdhO2FhHiECtLa-22" vertex="1">
          <mxGeometry y="70" width="270" height="8" as="geometry" />
        </mxCell>
        <mxCell id="EWlRzlxdhO2FhHiECtLa-25" value="+ start(timeout : tSimpleSoftTimerTime) : void&#xa;+ restart() : void&#xa;+ isTimeout() : bool" style="text;align=left;verticalAlign=top;spacingLeft=4;spacingRight=4;overflow=hidden;rotatable=0;points=[[0,0.5],[1,0.5]];portConstraint=eastwest;" parent="EWlRzlxdhO2FhHiECtLa-22" vertex="1">
          <mxGeometry y="78" width="270" height="62" as="geometry" />
        </mxCell>
        <mxCell id="EWlRzlxdhO2FhHiECtLa-26" style="edgeStyle=none;curved=1;rounded=0;orthogonalLoop=1;jettySize=auto;html=1;exitX=0.489;exitY=0.981;exitDx=0;exitDy=0;entryX=0.75;entryY=0;entryDx=0;entryDy=0;fontSize=12;startSize=8;endSize=8;exitPerimeter=0;" parent="WIyWlLk6GJQsqaUBKTNV-1" source="EWlRzlxdhO2FhHiECtLa-25" target="EPb7erDvm0e9K2WXAWxK-30" edge="1">
          <mxGeometry relative="1" as="geometry" />
        </mxCell>
        <mxCell id="eW0T1VOaYJWBQ0yNCG2t-3" value="GameChanger" style="swimlane;fontStyle=2;align=center;verticalAlign=top;childLayout=stackLayout;horizontal=1;startSize=26;horizontalStack=0;resizeParent=1;resizeLast=0;collapsible=1;marginBottom=0;rounded=0;shadow=0;strokeWidth=1;" vertex="1" parent="WIyWlLk6GJQsqaUBKTNV-1">
          <mxGeometry x="-10" y="-1420" width="730" height="300" as="geometry">
            <mxRectangle x="230" y="140" width="160" height="26" as="alternateBounds" />
          </mxGeometry>
        </mxCell>
        <mxCell id="eW0T1VOaYJWBQ0yNCG2t-4" value="- programmAmount : int&#xa;" style="text;align=left;verticalAlign=top;spacingLeft=4;spacingRight=4;overflow=hidden;rotatable=0;points=[[0,0.5],[1,0.5]];portConstraint=eastwest;rounded=0;shadow=0;html=0;" vertex="1" parent="eW0T1VOaYJWBQ0yNCG2t-3">
          <mxGeometry y="26" width="730" height="114" as="geometry" />
        </mxCell>
        <mxCell id="eW0T1VOaYJWBQ0yNCG2t-5" value="" style="line;html=1;strokeWidth=1;align=left;verticalAlign=middle;spacingTop=-1;spacingLeft=3;spacingRight=3;rotatable=0;labelPosition=right;points=[];portConstraint=eastwest;" vertex="1" parent="eW0T1VOaYJWBQ0yNCG2t-3">
          <mxGeometry y="140" width="730" height="8" as="geometry" />
        </mxCell>
        <mxCell id="eW0T1VOaYJWBQ0yNCG2t-6" value="+ StartGame(gameNumber : char) : void&#xa;+ EndGame() : void&#xa;+ NextGame()&#xa;&#xa;" style="text;align=left;verticalAlign=top;spacingLeft=4;spacingRight=4;overflow=hidden;rotatable=0;points=[[0,0.5],[1,0.5]];portConstraint=eastwest;" vertex="1" parent="eW0T1VOaYJWBQ0yNCG2t-3">
          <mxGeometry y="148" width="730" height="152" as="geometry" />
        </mxCell>
        <mxCell id="eW0T1VOaYJWBQ0yNCG2t-8" style="edgeStyle=none;curved=1;rounded=0;orthogonalLoop=1;jettySize=auto;html=1;exitX=0.497;exitY=1;exitDx=0;exitDy=0;entryX=0.5;entryY=0;entryDx=0;entryDy=0;fontSize=12;startSize=8;endSize=8;exitPerimeter=0;" edge="1" parent="WIyWlLk6GJQsqaUBKTNV-1" source="eW0T1VOaYJWBQ0yNCG2t-6" target="EPb7erDvm0e9K2WXAWxK-55">
          <mxGeometry relative="1" as="geometry">
            <mxPoint x="718.76" y="-885.02" as="sourcePoint" />
            <mxPoint x="709.9999999999998" y="-1070.004" as="targetPoint" />
          </mxGeometry>
        </mxCell>
        <mxCell id="eW0T1VOaYJWBQ0yNCG2t-9" value="Snake" style="swimlane;fontStyle=2;align=center;verticalAlign=top;childLayout=stackLayout;horizontal=1;startSize=26;horizontalStack=0;resizeParent=1;resizeLast=0;collapsible=1;marginBottom=0;rounded=0;shadow=0;strokeWidth=1;" vertex="1" parent="WIyWlLk6GJQsqaUBKTNV-1">
          <mxGeometry x="-180" y="20" width="720" height="200" as="geometry">
            <mxRectangle x="230" y="140" width="160" height="26" as="alternateBounds" />
          </mxGeometry>
        </mxCell>
        <mxCell id="eW0T1VOaYJWBQ0yNCG2t-10" value="- snakeLength : int = 0&#xa;- snake : tPoint = {7, 7}&#xa;- snakeDirection : int = 0&#xa;- snakeTail : tPoint[256] = {0}&#xa;- snakeDirection : int = 0" style="text;align=left;verticalAlign=top;spacingLeft=4;spacingRight=4;overflow=hidden;rotatable=0;points=[[0,0.5],[1,0.5]];portConstraint=eastwest;rounded=0;shadow=0;html=0;" vertex="1" parent="eW0T1VOaYJWBQ0yNCG2t-9">
          <mxGeometry y="26" width="720" height="84" as="geometry" />
        </mxCell>
        <mxCell id="eW0T1VOaYJWBQ0yNCG2t-11" value="" style="line;html=1;strokeWidth=1;align=left;verticalAlign=middle;spacingTop=-1;spacingLeft=3;spacingRight=3;rotatable=0;labelPosition=right;points=[];portConstraint=eastwest;" vertex="1" parent="eW0T1VOaYJWBQ0yNCG2t-9">
          <mxGeometry y="110" width="720" height="8" as="geometry" />
        </mxCell>
        <mxCell id="eW0T1VOaYJWBQ0yNCG2t-12" value="- SnakeSetup(image : uint8_t[16][16], snake : tPoint) : void&#xa;- UpdateSnakeTail(snake : tPoint, snakeTail : tPoint[256], snakeLength : int, image : uint8_t[16][16]) : void&#xa;- SnakeMovement(snakeDirection : int&amp;, snake : *tPoint) : void&#xa;- ChangeSnakeDirection(leftButton : QwiicButton, rightButton : QwiicButton, snakeDirection : int&amp;, tempTime : unsigned long[4]) : void&#xa;" style="text;align=left;verticalAlign=top;spacingLeft=4;spacingRight=4;overflow=hidden;rotatable=0;points=[[0,0.5],[1,0.5]];portConstraint=eastwest;" vertex="1" parent="eW0T1VOaYJWBQ0yNCG2t-9">
          <mxGeometry y="118" width="720" height="76" as="geometry" />
        </mxCell>
        <mxCell id="eW0T1VOaYJWBQ0yNCG2t-45" style="edgeStyle=none;curved=1;rounded=0;orthogonalLoop=1;jettySize=auto;html=1;exitX=0.5;exitY=0;exitDx=0;exitDy=0;entryX=0.5;entryY=1;entryDx=0;entryDy=0;fontSize=12;startSize=8;endSize=8;" edge="1" parent="WIyWlLk6GJQsqaUBKTNV-1" source="eW0T1VOaYJWBQ0yNCG2t-13" target="EPb7erDvm0e9K2WXAWxK-55">
          <mxGeometry relative="1" as="geometry">
            <mxPoint x="165" y="-800" as="targetPoint" />
          </mxGeometry>
        </mxCell>
        <mxCell id="eW0T1VOaYJWBQ0yNCG2t-13" value="Snake game" style="swimlane;fontStyle=2;align=center;verticalAlign=top;childLayout=stackLayout;horizontal=1;startSize=26;horizontalStack=0;resizeParent=1;resizeLast=0;collapsible=1;marginBottom=0;rounded=0;shadow=0;strokeWidth=1;" vertex="1" parent="WIyWlLk6GJQsqaUBKTNV-1">
          <mxGeometry x="70" y="-360" width="730" height="240" as="geometry">
            <mxRectangle x="230" y="140" width="160" height="26" as="alternateBounds" />
          </mxGeometry>
        </mxCell>
        <mxCell id="eW0T1VOaYJWBQ0yNCG2t-14" value="- gameOver : bool = false&#xa;- playAgainTimer : SimpleSoftTimer(2000)&#xa;- difficulty : int = 1&#xa;+ gameNumber : char" style="text;align=left;verticalAlign=top;spacingLeft=4;spacingRight=4;overflow=hidden;rotatable=0;points=[[0,0.5],[1,0.5]];portConstraint=eastwest;rounded=0;shadow=0;html=0;" vertex="1" parent="eW0T1VOaYJWBQ0yNCG2t-13">
          <mxGeometry y="26" width="730" height="74" as="geometry" />
        </mxCell>
        <mxCell id="eW0T1VOaYJWBQ0yNCG2t-15" value="" style="line;html=1;strokeWidth=1;align=left;verticalAlign=middle;spacingTop=-1;spacingLeft=3;spacingRight=3;rotatable=0;labelPosition=right;points=[];portConstraint=eastwest;" vertex="1" parent="eW0T1VOaYJWBQ0yNCG2t-13">
          <mxGeometry y="100" width="730" height="8" as="geometry" />
        </mxCell>
        <mxCell id="eW0T1VOaYJWBQ0yNCG2t-16" value="- SnakeTitleScreen(image : uint8_t[16][16]) : void&#xa;- SchweirigkeitsScreen(image : uint8_t[16][16]) : void&#xa;- ChooseDifficulty(image : uint8_t[16][16], buffer : uint8_t[256], leftButton : QwiicButton, rightButton : QwiicButton) : int&#xa;- CheckForGameOver(snake : *tPoint, snakeTail : tPoint[256], snakeLength : int, gameOver : bool&amp;) : void&#xa;- DrawSnakenApple(snake : *tPoint, snakeTail : tPoint[256], image : uint8_t[16][16], buffer : uint8_t[256], snakeLenth : int) : void&#xa;- SnakeGameOverScreen(image : uint8_t[16][16]) : void&#xa;- SnakeStartNewScreen(image : uint8_t[16][16]) : void&#xa;+ PlaySnake(image : uint8_t[16][16], buffer : uint8_t[256], leftButton : QwiicButton, rightButton : QwiicButton) : void" style="text;align=left;verticalAlign=top;spacingLeft=4;spacingRight=4;overflow=hidden;rotatable=0;points=[[0,0.5],[1,0.5]];portConstraint=eastwest;" vertex="1" parent="eW0T1VOaYJWBQ0yNCG2t-13">
          <mxGeometry y="108" width="730" height="132" as="geometry" />
        </mxCell>
        <mxCell id="eW0T1VOaYJWBQ0yNCG2t-18" value="Apple" style="swimlane;fontStyle=2;align=center;verticalAlign=top;childLayout=stackLayout;horizontal=1;startSize=26;horizontalStack=0;resizeParent=1;resizeLast=0;collapsible=1;marginBottom=0;rounded=0;shadow=0;strokeWidth=1;" vertex="1" parent="WIyWlLk6GJQsqaUBKTNV-1">
          <mxGeometry x="630" y="10" width="510" height="110" as="geometry">
            <mxRectangle x="230" y="140" width="160" height="26" as="alternateBounds" />
          </mxGeometry>
        </mxCell>
        <mxCell id="eW0T1VOaYJWBQ0yNCG2t-19" value="- apple : tPoint = {0}" style="text;align=left;verticalAlign=top;spacingLeft=4;spacingRight=4;overflow=hidden;rotatable=0;points=[[0,0.5],[1,0.5]];portConstraint=eastwest;rounded=0;shadow=0;html=0;" vertex="1" parent="eW0T1VOaYJWBQ0yNCG2t-18">
          <mxGeometry y="26" width="510" height="34" as="geometry" />
        </mxCell>
        <mxCell id="eW0T1VOaYJWBQ0yNCG2t-20" value="" style="line;html=1;strokeWidth=1;align=left;verticalAlign=middle;spacingTop=-1;spacingLeft=3;spacingRight=3;rotatable=0;labelPosition=right;points=[];portConstraint=eastwest;" vertex="1" parent="eW0T1VOaYJWBQ0yNCG2t-18">
          <mxGeometry y="60" width="510" height="8" as="geometry" />
        </mxCell>
        <mxCell id="eW0T1VOaYJWBQ0yNCG2t-21" value="- PlantApple(apple : *tPoint, snake : *tPoint, snakeTail : tPoint[256], snakeLength : int) : void" style="text;align=left;verticalAlign=top;spacingLeft=4;spacingRight=4;overflow=hidden;rotatable=0;points=[[0,0.5],[1,0.5]];portConstraint=eastwest;" vertex="1" parent="eW0T1VOaYJWBQ0yNCG2t-18">
          <mxGeometry y="68" width="510" height="42" as="geometry" />
        </mxCell>
        <mxCell id="eW0T1VOaYJWBQ0yNCG2t-23" value="" style="edgeStyle=none;curved=1;rounded=0;orthogonalLoop=1;jettySize=auto;html=1;fontSize=12;startSize=8;endSize=8;entryX=0.678;entryY=1;entryDx=0;entryDy=0;exitX=0.5;exitY=0;exitDx=0;exitDy=0;entryPerimeter=0;" edge="1" parent="WIyWlLk6GJQsqaUBKTNV-1" source="eW0T1VOaYJWBQ0yNCG2t-18" target="eW0T1VOaYJWBQ0yNCG2t-16">
          <mxGeometry relative="1" as="geometry">
            <mxPoint x="759.9958139534883" y="-4" as="sourcePoint" />
            <mxPoint x="825.1120930232564" y="46" as="targetPoint" />
          </mxGeometry>
        </mxCell>
        <mxCell id="eW0T1VOaYJWBQ0yNCG2t-46" style="edgeStyle=none;curved=1;rounded=0;orthogonalLoop=1;jettySize=auto;html=1;exitX=0.5;exitY=0;exitDx=0;exitDy=0;fontSize=12;startSize=8;endSize=8;entryX=0.5;entryY=1;entryDx=0;entryDy=0;" edge="1" parent="WIyWlLk6GJQsqaUBKTNV-1" source="eW0T1VOaYJWBQ0yNCG2t-24" target="EPb7erDvm0e9K2WXAWxK-55">
          <mxGeometry relative="1" as="geometry">
            <mxPoint x="165" y="-800" as="targetPoint" />
          </mxGeometry>
        </mxCell>
        <mxCell id="eW0T1VOaYJWBQ0yNCG2t-24" value="Car Jump" style="swimlane;fontStyle=2;align=center;verticalAlign=top;childLayout=stackLayout;horizontal=1;startSize=26;horizontalStack=0;resizeParent=1;resizeLast=0;collapsible=1;marginBottom=0;rounded=0;shadow=0;strokeWidth=1;" vertex="1" parent="WIyWlLk6GJQsqaUBKTNV-1">
          <mxGeometry x="1260" y="-360" width="730" height="210" as="geometry">
            <mxRectangle x="230" y="140" width="160" height="26" as="alternateBounds" />
          </mxGeometry>
        </mxCell>
        <mxCell id="eW0T1VOaYJWBQ0yNCG2t-25" value="..." style="text;align=left;verticalAlign=top;spacingLeft=4;spacingRight=4;overflow=hidden;rotatable=0;points=[[0,0.5],[1,0.5]];portConstraint=eastwest;rounded=0;shadow=0;html=0;" vertex="1" parent="eW0T1VOaYJWBQ0yNCG2t-24">
          <mxGeometry y="26" width="730" height="84" as="geometry" />
        </mxCell>
        <mxCell id="eW0T1VOaYJWBQ0yNCG2t-26" value="" style="line;html=1;strokeWidth=1;align=left;verticalAlign=middle;spacingTop=-1;spacingLeft=3;spacingRight=3;rotatable=0;labelPosition=right;points=[];portConstraint=eastwest;" vertex="1" parent="eW0T1VOaYJWBQ0yNCG2t-24">
          <mxGeometry y="110" width="730" height="8" as="geometry" />
        </mxCell>
        <mxCell id="eW0T1VOaYJWBQ0yNCG2t-27" value="..." style="text;align=left;verticalAlign=top;spacingLeft=4;spacingRight=4;overflow=hidden;rotatable=0;points=[[0,0.5],[1,0.5]];portConstraint=eastwest;rounded=0;shadow=0;html=0;" vertex="1" parent="eW0T1VOaYJWBQ0yNCG2t-24">
          <mxGeometry y="118" width="730" height="84" as="geometry" />
        </mxCell>
        <mxCell id="eW0T1VOaYJWBQ0yNCG2t-47" style="edgeStyle=none;curved=1;rounded=0;orthogonalLoop=1;jettySize=auto;html=1;exitX=0.5;exitY=0;exitDx=0;exitDy=0;fontSize=12;startSize=8;endSize=8;entryX=0.5;entryY=1;entryDx=0;entryDy=0;" edge="1" parent="WIyWlLk6GJQsqaUBKTNV-1" source="eW0T1VOaYJWBQ0yNCG2t-30" target="EPb7erDvm0e9K2WXAWxK-55">
          <mxGeometry relative="1" as="geometry">
            <mxPoint x="165" y="-800" as="targetPoint" />
          </mxGeometry>
        </mxCell>
        <mxCell id="eW0T1VOaYJWBQ0yNCG2t-30" value="Connect 4" style="swimlane;fontStyle=2;align=center;verticalAlign=top;childLayout=stackLayout;horizontal=1;startSize=26;horizontalStack=0;resizeParent=1;resizeLast=0;collapsible=1;marginBottom=0;rounded=0;shadow=0;strokeWidth=1;" vertex="1" parent="WIyWlLk6GJQsqaUBKTNV-1">
          <mxGeometry x="-890" y="-360" width="730" height="210" as="geometry">
            <mxRectangle x="230" y="140" width="160" height="26" as="alternateBounds" />
          </mxGeometry>
        </mxCell>
        <mxCell id="eW0T1VOaYJWBQ0yNCG2t-31" value="..." style="text;align=left;verticalAlign=top;spacingLeft=4;spacingRight=4;overflow=hidden;rotatable=0;points=[[0,0.5],[1,0.5]];portConstraint=eastwest;rounded=0;shadow=0;html=0;" vertex="1" parent="eW0T1VOaYJWBQ0yNCG2t-30">
          <mxGeometry y="26" width="730" height="84" as="geometry" />
        </mxCell>
        <mxCell id="eW0T1VOaYJWBQ0yNCG2t-32" value="" style="line;html=1;strokeWidth=1;align=left;verticalAlign=middle;spacingTop=-1;spacingLeft=3;spacingRight=3;rotatable=0;labelPosition=right;points=[];portConstraint=eastwest;" vertex="1" parent="eW0T1VOaYJWBQ0yNCG2t-30">
          <mxGeometry y="110" width="730" height="8" as="geometry" />
        </mxCell>
        <mxCell id="eW0T1VOaYJWBQ0yNCG2t-33" value="..." style="text;align=left;verticalAlign=top;spacingLeft=4;spacingRight=4;overflow=hidden;rotatable=0;points=[[0,0.5],[1,0.5]];portConstraint=eastwest;rounded=0;shadow=0;html=0;" vertex="1" parent="eW0T1VOaYJWBQ0yNCG2t-30">
          <mxGeometry y="118" width="730" height="84" as="geometry" />
        </mxCell>
        <mxCell id="eW0T1VOaYJWBQ0yNCG2t-49" style="edgeStyle=none;curved=1;rounded=0;orthogonalLoop=1;jettySize=auto;html=1;exitX=0.5;exitY=0;exitDx=0;exitDy=0;fontSize=12;startSize=8;endSize=8;entryX=0.5;entryY=1;entryDx=0;entryDy=0;" edge="1" parent="WIyWlLk6GJQsqaUBKTNV-1" source="eW0T1VOaYJWBQ0yNCG2t-35" target="EPb7erDvm0e9K2WXAWxK-55">
          <mxGeometry relative="1" as="geometry">
            <mxPoint x="165" y="-800" as="targetPoint" />
          </mxGeometry>
        </mxCell>
        <mxCell id="eW0T1VOaYJWBQ0yNCG2t-35" value="Clock" style="swimlane;fontStyle=2;align=center;verticalAlign=top;childLayout=stackLayout;horizontal=1;startSize=26;horizontalStack=0;resizeParent=1;resizeLast=0;collapsible=1;marginBottom=0;rounded=0;shadow=0;strokeWidth=1;" vertex="1" parent="WIyWlLk6GJQsqaUBKTNV-1">
          <mxGeometry x="2290" y="-360" width="730" height="210" as="geometry">
            <mxRectangle x="230" y="140" width="160" height="26" as="alternateBounds" />
          </mxGeometry>
        </mxCell>
        <mxCell id="eW0T1VOaYJWBQ0yNCG2t-36" value="..." style="text;align=left;verticalAlign=top;spacingLeft=4;spacingRight=4;overflow=hidden;rotatable=0;points=[[0,0.5],[1,0.5]];portConstraint=eastwest;rounded=0;shadow=0;html=0;" vertex="1" parent="eW0T1VOaYJWBQ0yNCG2t-35">
          <mxGeometry y="26" width="730" height="84" as="geometry" />
        </mxCell>
        <mxCell id="eW0T1VOaYJWBQ0yNCG2t-37" value="" style="line;html=1;strokeWidth=1;align=left;verticalAlign=middle;spacingTop=-1;spacingLeft=3;spacingRight=3;rotatable=0;labelPosition=right;points=[];portConstraint=eastwest;" vertex="1" parent="eW0T1VOaYJWBQ0yNCG2t-35">
          <mxGeometry y="110" width="730" height="8" as="geometry" />
        </mxCell>
        <mxCell id="eW0T1VOaYJWBQ0yNCG2t-38" value="..." style="text;align=left;verticalAlign=top;spacingLeft=4;spacingRight=4;overflow=hidden;rotatable=0;points=[[0,0.5],[1,0.5]];portConstraint=eastwest;rounded=0;shadow=0;html=0;" vertex="1" parent="eW0T1VOaYJWBQ0yNCG2t-35">
          <mxGeometry y="118" width="730" height="84" as="geometry" />
        </mxCell>
        <mxCell id="eW0T1VOaYJWBQ0yNCG2t-48" style="edgeStyle=none;curved=1;rounded=0;orthogonalLoop=1;jettySize=auto;html=1;exitX=0.5;exitY=0;exitDx=0;exitDy=0;fontSize=12;startSize=8;endSize=8;entryX=0.5;entryY=1;entryDx=0;entryDy=0;" edge="1" parent="WIyWlLk6GJQsqaUBKTNV-1" source="eW0T1VOaYJWBQ0yNCG2t-40" target="EPb7erDvm0e9K2WXAWxK-55">
          <mxGeometry relative="1" as="geometry">
            <mxPoint x="165" y="-800" as="targetPoint" />
          </mxGeometry>
        </mxCell>
        <mxCell id="eW0T1VOaYJWBQ0yNCG2t-40" value="Box Connector" style="swimlane;fontStyle=2;align=center;verticalAlign=top;childLayout=stackLayout;horizontal=1;startSize=26;horizontalStack=0;resizeParent=1;resizeLast=0;collapsible=1;marginBottom=0;rounded=0;shadow=0;strokeWidth=1;" vertex="1" parent="WIyWlLk6GJQsqaUBKTNV-1">
          <mxGeometry x="-1970" y="-360" width="730" height="210" as="geometry">
            <mxRectangle x="230" y="140" width="160" height="26" as="alternateBounds" />
          </mxGeometry>
        </mxCell>
        <mxCell id="eW0T1VOaYJWBQ0yNCG2t-41" value="..." style="text;align=left;verticalAlign=top;spacingLeft=4;spacingRight=4;overflow=hidden;rotatable=0;points=[[0,0.5],[1,0.5]];portConstraint=eastwest;rounded=0;shadow=0;html=0;" vertex="1" parent="eW0T1VOaYJWBQ0yNCG2t-40">
          <mxGeometry y="26" width="730" height="84" as="geometry" />
        </mxCell>
        <mxCell id="eW0T1VOaYJWBQ0yNCG2t-42" value="" style="line;html=1;strokeWidth=1;align=left;verticalAlign=middle;spacingTop=-1;spacingLeft=3;spacingRight=3;rotatable=0;labelPosition=right;points=[];portConstraint=eastwest;" vertex="1" parent="eW0T1VOaYJWBQ0yNCG2t-40">
          <mxGeometry y="110" width="730" height="8" as="geometry" />
        </mxCell>
        <mxCell id="eW0T1VOaYJWBQ0yNCG2t-43" value="..." style="text;align=left;verticalAlign=top;spacingLeft=4;spacingRight=4;overflow=hidden;rotatable=0;points=[[0,0.5],[1,0.5]];portConstraint=eastwest;rounded=0;shadow=0;html=0;" vertex="1" parent="eW0T1VOaYJWBQ0yNCG2t-40">
          <mxGeometry y="118" width="730" height="84" as="geometry" />
        </mxCell>
        <mxCell id="eW0T1VOaYJWBQ0yNCG2t-17" value="" style="edgeStyle=none;curved=1;rounded=0;orthogonalLoop=1;jettySize=auto;html=1;fontSize=12;startSize=8;endSize=8;entryX=0.189;entryY=0.999;entryDx=0;entryDy=0;exitX=0.5;exitY=0;exitDx=0;exitDy=0;entryPerimeter=0;" edge="1" parent="WIyWlLk6GJQsqaUBKTNV-1" source="eW0T1VOaYJWBQ0yNCG2t-9" target="eW0T1VOaYJWBQ0yNCG2t-16">
          <mxGeometry relative="1" as="geometry">
            <mxPoint x="260" y="80" as="sourcePoint" />
            <mxPoint x="645" y="-450" as="targetPoint" />
          </mxGeometry>
        </mxCell>
      </root>
    </mxGraphModel>
  </diagram>
</mxfile>
